<?xml version="1.0" encoding="UTF-8"?><svg id="a" xmlns="http://www.w3.org/2000/svg" width="84.67mm" height="105.39mm" viewBox="0 0 240 298.74"><path d="m143.14,96.9l-32.5,36.28c-.66.74-1.61,1.16-2.61,1.16h-11.93l-8.18,13.99h55.22v-51.44Z" style="stroke-width:0px;"/><path d="m31.3,101.93h60.95l17.83-19.55,1.13-1.24c.08-.09.18-.18.28-.25.88-.66,2.14-.48,2.8.4-.21-.28-.03-.04.04.04s.17.2.3.35c.26.3.62.71,1.06,1.21,1.06,1.21,2.13,2.42,3.19,3.63.83.94,1.05,1.19,1.78,2.03,1.95-3.86,3.91-7.72,6-11.47,0,0,0,0,0,0,2.89-5.15,5.78-10.44,9.62-15.34.39-.49.99-.78,1.61-.77h0c.19,0,.37.03.55.09,1.06.33,1.65,1.45,1.32,2.5-1.85,5.96-4.57,11.33-7.15,16.64,0,0,0,0,0,0-2.9,5.89-5.94,11.74-9.27,17.44-.1.17-.22.33-.37.46-.81.75-2.08.7-2.83-.11l-1.24-1.34-6.23-6.74-16.3,17.88s0,0,0,0l-.45.49c-.38.41-.91.65-1.47.65h-61.93l5.24,18.42h68.7l37.57-41.94c.97-1.08,2.5-1.45,3.86-.93h0c1.35.52,2.25,1.82,2.25,3.27v210.99h89.86l-59.45-214.81,27.05-5.26-34.21-20.61-2.38-8.56,26.96-5.25-30.21-18.2,11.32-21.31-25.72,11.77-19.15,4.98-1.86-.56L143.47,0l-31.92,14.59-6.58-2-18,17.7L21.48,70.13l9.09,31.94c.23-.09.47-.14.73-.14ZM124.65,35.93c2.03-2.32,4.44-5.09,7.15-7.14,1.6-1.28,3.32-2.53,5.31-3.59.41-.22.87-.29,1.33-.23.46.07.88.28,1.2.61l.21.21c.4.4.63.95.63,1.52h0c0,.38-.09.74-.27,1.05-.8,1.44-1.76,2.75-2.72,4.05,4.48.24,9.17.52,13.53.88,1.12.09,1.97,1.02,1.97,2.14v.3c0,1.12-.85,2.05-1.97,2.14-4.36.37-8.79.63-13.21.89l.04.09c.49,1.05.05,2.31-.98,2.83l-2.9,1.46c-.61.31-1.33.3-1.94,0l-2.89-1.46c-.85-.43-1.31-1.37-1.14-2.31-.53.04-1.06.07-1.58.11-.58.04-1.14-.15-1.58-.53-.89-.78-.98-2.14-.2-3.03Zm-37.16,0c2.03-2.32,4.44-5.09,7.15-7.14,1.6-1.28,3.32-2.53,5.31-3.59.41-.22.87-.29,1.33-.23.46.07.88.28,1.2.61l.21.21c.4.4.63.95.63,1.52h0c0,.38-.09.74-.27,1.05-.8,1.44-1.76,2.75-2.72,4.05,4.48.24,9.17.52,13.53.88,1.12.09,1.97,1.02,1.97,2.14v.3c0,1.12-.85,2.05-1.97,2.14-4.43.38-8.93.64-13.41.9l.25.54c.49,1.05.05,2.31-.98,2.83l-2.9,1.46c-.61.31-1.33.3-1.94,0l-2.89-1.46c-1.02-.52-1.45-1.74-1-2.78-.58.04-1.15.08-1.72.12-.58.04-1.14-.15-1.58-.53-.89-.78-.98-2.14-.2-3.03Zm-9.12,47.21c1.09-4.17,2.39-8.17,3.49-12.16.28-1.02,1.16-1.77,2.21-1.89,1.02-.12,2.05-.17,3.07-.17.62,0,1.23.03,1.85.09,1.66.14,3.3.46,4.89.97,1.08.34,1.82,1.34,1.82,2.48v.2c0,1.11-.71,2.1-1.77,2.46-1.6.54-3.14.77-4.54.93-.64.07-1.32,0-1.98.02-1.3,2.95-2.57,5.92-4,8.92-.58,1.21-1.98,1.78-3.24,1.32l-.19-.07c-1.26-.46-1.96-1.8-1.62-3.1Zm-52.24-10.48v-.2c0-1.14.74-2.15,1.83-2.48,1.61-.5,3.24-.82,4.88-.96.62-.05,1.23-.08,1.85-.09,1.03,0,2.06.05,3.08.17,1.05.12,1.93.87,2.21,1.89,1.1,3.98,2.4,7.99,3.49,12.16.34,1.29-.36,2.63-1.62,3.1l-.19.07c-1.26.46-2.67-.11-3.24-1.32-1.43-3-2.7-5.97-4-8.92-.66-.02-1.34.05-1.98-.02-1.41-.16-2.94-.39-4.54-.93-1.06-.36-1.77-1.35-1.77-2.46Z" style="stroke-width:0px;"/><polygon points="143.14 255.83 25.09 255.83 0 298.74 143.14 298.74 143.14 255.83" style="stroke-width:0px;"/><polygon points="143.14 248.83 143.14 205.82 54.32 205.82 29.18 248.83 143.14 248.83" style="stroke-width:0px;"/><polygon points="143.14 198.82 143.14 155.34 83.83 155.34 58.41 198.82 143.14 198.82" style="stroke-width:0px;"/></svg>