<svg xmlns="http://www.w3.org/2000/svg" xmlns:xlink="http://www.w3.org/1999/xlink" id="Layer_1" x="0px" y="0px"
  viewBox="0 0 450 446.8" style="enable-background:new 0 0 450 446.8;" xml:space="preserve" width="450" height="446.8">
  <g id="levi_land_logo">
    <path fill="white" class="st5"
      d="M447.7,316.4c-3.4-16.1-9-31.3-18.9-44.6c-3.8-5.1-8.8-9-13.1-13.6c7.4-2.2,9.9-6.9,8.5-14.8 c-2.4-13.1-7.6-24.5-17.2-34.1c-11.5-11.5-25-14.4-40.2-9.9c-13.3,4-24.7,11.4-34.8,20.8c-2.3,2.2-4.3,4.7-7.7,6 c-1.6-3.8-2.3-7.7-3-11.9c5.3-1,10.4-1.4,15.3-2.8c13.4-3.9,20.5-13.5,24.2-26.2c1.2-4.2,1.5-8.6,2.4-12.7c1.5-6.5,4.5-12.8,7-19.1 c0.7-1.7,2.2-1.5,3.8-1.2c16.4,2.6,29.9,10.8,42.2,21.3c2.2,1.9,4.3,3.7,6.5,5.5c0.9,0.7,1.6,1.9,3,1.2c1.2-0.6,1.3-1.8,1.3-3 c0.2-5.7-1.2-11.2-2.4-16.7c-4.8-21.4-13.5-41-27.1-58.3c-8.3-10.5-17.8-19.7-29.1-27c-3.3-2.2-5.8-4.7-7.5-8.3 c-4.4-9.1-10.9-11.9-20.4-8.3c-4.9,1.9-9.5,0.7-14.2,0c-15.8-2.2-31.1-0.8-46,5c-0.9,0.3-1.8,0.6-2.8,0.9c-0.3,0.1-0.6-0.2-1.2-0.4 c0.7-1.9,2.4-2.6,3.8-3.5c20.6-13.3,41.1-26.6,61.6-39.8c2.1-1.3,4-2.9,5.5-4.9c2.7-3.6,2.1-7.1-2.1-8.9c-3-1.3-6.1-2.3-9.6-2.4 c-29.5-0.5-56.6,7.7-82.3,21.8c-12.5,6.9-23.7,15.4-33.7,25.4c-7.5,7.5-13.9,16-19.6,25c-0.5,0.9-0.6,2.4-2.9,2.2 c2.3-5.5,4.5-10.8,6.8-16c6.5-14.4,13-28.8,19.5-43.2c3-6.6,5-23.6-8.3-19.2c-4,1.1-21,17.5-31.2,33.7 c-8.9,14.2-12.3,30.6-13.9,47.4c-1.1,12.3-1.4,24.5,0.1,36.8c0.2,1.6,0,3.3-0.4,5c-12.3-29.2-13.8-59.7-11.1-90.8 c-6.4,29.6-3.6,58.7,5.9,87.4c-4.5-3.6-6.1-9-8.8-13.5c-9.7-16.1-20.8-30.9-35.7-42.5c-3.5-2.7-7.4-4.9-11.8-6.3 c-7.5-2.4-14.2,0.1-18.2,7.1c-8,14.1-11.7,29.5-13,45.6c-0.4,5.5-1.1,10.9-0.9,16.4c0.5,15.8,3.5,30.9,11.4,44.8 c0.4,0.8,0.4,1.9,0.6,2.9c0.1,0,0.3,0.1,0.4,0.2c-0.1-0.1-0.3-0.1-0.4-0.2c-2.5-0.3-4-2.2-6.2-3.1c-4.4-1.8-7.4,0.3-6.7,5 c0.4,3.3,2.3,6.1,4.2,8.9c4.5,6.5,9.9,12,16.1,16.9c0.5,0.4,1.2,0.6,1,1.6c-1.6,0.9-2.7-0.5-3.9-1.1c-28.1-13.8-50.6-0.9-62.4,25 c-2.5,5.7-3.7,11.7-4.8,17.7c-0.9,4.9,1.6,9.1,7.3,11.8c-7.3,7.5-13.5,15.7-18.3,24.8c-5.7,10.7-9.9,22.1-12.2,34.1 c-0.3,1.5,0.1,3.2-2.1,3.4c0,12,0,24,0,36c2.2,0.2,2.6,2.3,3.5,3.7c2.9,3.3,5.4,3.1,7.7-0.7c0.9-1.4,1.8-2.7,3.2-4.8 c0.3,6.7,4.1,9.7,8.9,12.2c17,8.9,35.6,12.6,54,16.6c16.5,3.6,33.1,6.5,49.7,9.7c7.8,1.5,15.9,1,23.6,3.3c1.5,0.4,2.7,0.4,3.2,2.3 c1.5,5.8,5.8,9.6,10,13.3c14.9,12.9,31,24.1,49.3,31.5c9,3.6,18.5,4.9,28.3,3.2c2.4-0.4,4.5-1.4,6.2-2.9 c11.9-10.3,25.7-17.7,39.7-24.6c7.8-3.8,15.3-8.1,22.1-13.5c2.6-2.1,4.5-4.4,4.3-7.9c-0.2-3.1,1.7-3.9,4.3-4.3 c21.7-3,43.1-7.7,64.4-12.4c15.5-3.4,30.7-7.4,44.8-14.8c4.3-2.3,7.7-5.2,7.7-11.1c1.8,1.2,2.5,2.8,3.4,4.3 c2.2,3.8,5.5,3.9,8.2,0.4c1-1.3,1.1-3.3,3.3-3.4c0-12,0-24,0-36C447.6,319.6,448,317.8,447.7,316.4z M129,213.6 c-1.3,5.1-2.2,9.1-3.2,13.3c-6.4-4.5-11.1-10.7-17.4-15.4C115.1,213.1,121.5,215.1,129,213.6z M148.9,286.7 c-1.5-2.3-3.1-4.5-4.8-6.6s-3.5-4.2-5.4-6c-1.6-1.6-3.4-3-5.2-4.1c-0.6,0.3-1.3,0.6-2,0.8c-1.1,0.3-2.1,0.7-3.1,1.1s-2,0.9-3,1.3 s-2,0.9-3,1.4c-2,0.9-4,2-6,3.1l-0.2-0.3c1.6-1.6,3.4-3.1,5.2-4.5c1.8-1.4,3.7-2.7,5.7-3.8l2.9-1.9c1-0.6,2-1.1,3.1-1.4 s2.2-0.6,3.4-0.8c1.2-0.2,2.3-0.3,3.6-0.1l0.1,0.4c-0.8,0.9-1.7,1.7-2.7,2.3c-0.1,0.1-0.3,0.2-0.4,0.3c1.4,1.3,2.7,2.7,3.9,4.2 c1.8,2.2,3.4,4.5,4.8,6.9c1.5,2.4,2.8,4.8,4.1,7.3s2.4,5,3.5,7.5C151.9,291.3,150.4,288.9,148.9,286.7z M173.6,225.1 c3.8-22.1,17.5-32.8,22.9-32.2c12.2,1.2,14.2,16.9,16,27.5c0.2,1.4,0.4,2.7,0.6,4.1c-2.2-5-5.7-8.2-9.6-8.2c-6.6,0-12,9.1-12,20.2 c0,7.7,2.6,14.4,6.3,17.8c-1.1,0.4-2.3,0.8-3.6,1.2c-5.7-1.7-12-3.9-17.1-7.6C174.5,240.9,172.2,232.8,173.6,225.1z M266.9,347.7 c0,0-2.1,2.1-3.7,3.7c-8.2-13-14.2,3.4-14.3,15.4c-7.3,5.8-14.8,8.2-21.9,8.2c-7.1,0-14.5-2.4-21.9-8.2c-0.1-12-6.1-28.4-14.3-15.4 c-1.7-1.7-3.7-3.7-3.7-3.7l-1.3-5.2c0,0,29.5,2.8,41.3,2.8s41.3-2.8,41.3-2.8L266.9,347.7z M276.4,247.9 c-5.1,3.7-11.4,5.9-17.1,7.6c-1.3-0.4-2.5-0.8-3.6-1.2c3.8-3.4,6.3-10.1,6.3-17.8c0-11.2-5.4-20.2-12-20.2c-3.9,0-7.4,3.2-9.6,8.2 c0.2-1.4,0.4-2.7,0.6-4.1c1.8-10.5,3.8-26.3,16-27.5c5.4-0.5,19,10.1,22.9,32.2C281.2,232.8,279,240.9,276.4,247.9z M335.5,277.1 c-2-1.1-3.9-2.1-6-3.1c-1-0.5-2-0.9-3-1.4s-2-0.9-3-1.3s-2.1-0.8-3.1-1.1c-0.7-0.2-1.3-0.5-2-0.8c-1.8,1.1-3.5,2.5-5.2,4.1 c-1.9,1.8-3.7,3.9-5.4,6c-1.7,2.1-3.3,4.3-4.8,6.6c-1.5,2.3-3,4.6-4.4,7c1.1-2.5,2.3-5,3.5-7.5c1.3-2.5,2.6-4.9,4.1-7.3 s3-4.7,4.8-6.9c1.2-1.4,2.5-2.9,3.9-4.2c-0.1-0.1-0.3-0.2-0.4-0.3c-0.9-0.7-1.8-1.4-2.7-2.3l0.1-0.4c1.3-0.2,2.4-0.1,3.6,0.1 s2.3,0.4,3.4,0.8s2.1,0.8,3.1,1.4l2.9,1.9c2,1.2,3.8,2.5,5.7,3.8c1.8,1.4,3.6,2.9,5.2,4.5L335.5,277.1z" />
  </g>
</svg>