<?xml version="1.0" encoding="UTF-8"?><svg id="a" xmlns="http://www.w3.org/2000/svg" width="352.78mm" height="292.36mm" viewBox="0 0 1000 828.73"><g id="b"><path id="c" d="m68.74,356.76c268.43-116.95,447.43-194.06,537-231.31C861.46,19.09,914.6.62,949.23,0c7.62-.13,24.65,1.75,35.68,10.71,9.32,7.56,11.88,17.77,13.11,24.94s2.75,23.49,1.54,36.25c-13.86,145.6-73.82,498.94-104.32,662.02-12.91,69-38.32,92.14-62.93,94.4-53.47,4.92-94.08-35.34-145.87-69.29-81.04-53.12-126.83-86.2-205.49-138.04-90.91-59.91-31.98-92.84,19.83-146.65,13.56-14.08,249.16-228.38,253.72-247.82.57-2.43,1.1-11.49-4.28-16.28s-13.33-3.15-19.06-1.85c-8.13,1.84-137.6,87.42-388.4,256.72-36.75,25.23-70.04,37.53-99.86,36.89-32.88-.71-96.12-18.59-143.14-33.87C42.08,449.38-3.75,439.47.24,407.64c2.08-16.58,24.91-33.54,68.5-50.87Z" style="fill:#fff; fill-rule:evenodd; stroke-width:0px;"/></g></svg>