<?xml version="1.0" encoding="UTF-8"?><svg id="a" xmlns="http://www.w3.org/2000/svg" width="192" height="135.27" viewBox="0 0 192 135.27"><path d="m187.99,21.12c-2.21-8.31-8.71-14.86-16.97-17.09C156.04,0,96,0,96,0c0,0-60.04,0-75.01,4.04C12.73,6.26,6.22,12.81,4.01,21.12,0,36.19,0,67.64,0,67.64c0,0,0,31.44,4.01,46.51,2.21,8.31,8.71,14.86,16.97,17.08,14.97,4.04,75.01,4.04,75.01,4.04,0,0,60.04,0,75.01-4.04,8.26-2.22,14.77-8.77,16.97-17.08,4.01-15.07,4.01-46.51,4.01-46.51,0,0,0-31.44-4.01-46.51Zm-111.62,75.06v-57.1l50.18,28.55-50.18,28.55Z" style="fill:#fff; stroke-width:0px;"/></svg>